{
  "accessors": [
    {
      "bufferView": 2,
      "componentType": 5126,
      "count": 483,
      "max": [
        0.04028007760643959,
        0.05711904540657997,
        0.042735278606414795
      ],
      "min": [
        -0.039972614496946335,
        -0.057699982076883316,
        -0.0005565698957070708
      ],
      "type": "VEC3"
    },
    {
      "bufferView": 2,
      "byteOffset": 5796,
      "componentType": 5126,
      "count": 483,
      "max": [
        0.9998767971992493,
        0.99809330701828,
        0.9997358918190002
      ],
      "min": [
        -0.9961035251617432,
        -0.9999780654907227,
        -0.9999668002128601
      ],
      "type": "VEC3"
    },
    {
      "bufferView": 3,
      "componentType": 5126,
      "count": 483,
      "max": [
        0.9814397096633911,
        0.9592828750610352,
        0.9989261031150818,
        1.0
      ],
      "min": [
        -0.9995161294937134,
        -0.9214988946914673,
        -0.995705246925354,
        1.0
      ],
      "type": "VEC4"
    },
    {
      "bufferView": 1,
      "componentType": 5126,
      "count": 483,
      "max": [
        0.9917916655540466,
        0.9911470413208008
      ],
      "min": [
        0.007418173365294933,
        0.007893117144703865
      ],
      "type": "VEC2"
    },
    {
      "bufferView": 0,
      "componentType": 5125,
      "count": 2514,
      "type": "SCALAR"
    }
  ],
  "asset": {
    "extras": {
      "author": "hoxsvl (https://sketchfab.com/hoxsvl)",
      "license": "CC-BY-4.0 (http://creativecommons.org/licenses/by/4.0/)",
      "source": "https://sketchfab.com/3d-models/bun-roll-778299f0684b41ad8d522038b3a27a24",
      "title": "Bun / Roll | Булочка"
    },
    "generator": "Sketchfab-14.87.0",
    "version": "2.0"
  },
  "bufferViews": [
    {
      "buffer": 0,
      "byteLength": 10056,
      "name": "floatBufferViews",
      "target": 34963
    },
    {
      "buffer": 0,
      "byteLength": 3864,
      "byteOffset": 10056,
      "byteStride": 8,
      "name": "floatBufferViews",
      "target": 34962
    },
    {
      "buffer": 0,
      "byteLength": 11592,
      "byteOffset": 13920,
      "byteStride": 12,
      "name": "floatBufferViews",
      "target": 34962
    },
    {
      "buffer": 0,
      "byteLength": 7728,
      "byteOffset": 25512,
      "byteStride": 16,
      "name": "floatBufferViews",
      "target": 34962
    }
  ],
  "buffers": [
    {
      "byteLength": 33240,
      "uri": "scene.bin"
    }
  ],
  "extensionsRequired": [
    "KHR_materials_pbrSpecularGlossiness"
  ],
  "extensionsUsed": [
    "KHR_materials_pbrSpecularGlossiness"
  ],
  "images": [
    {
      "uri": "textures/bylochka-7_diffuse.png"
    },
    {
      "uri": "textures/bylochka-7_specularGlossiness.png"
    },
    {
      "uri": "textures/bylochka-7_normal.png"
    },
    {
      "uri": "textures/bylochka-7_occlusion.png"
    }
  ],
  "materials": [
    {
      "doubleSided": true,
      "extensions": {
        "KHR_materials_pbrSpecularGlossiness": {
          "diffuseFactor": [
            1.0,
            1.0,
            1.0,
            1.0
          ],
          "diffuseTexture": {
            "index": 0
          },
          "glossinessFactor": 1.0,
          "specularFactor": [
            0.02,
            0.02,
            0.02
          ],
          "specularGlossinessTexture": {
            "index": 1
          }
        }
      },
      "name": "bylochka-7",
      "normalTexture": {
        "index": 2
      },
      "occlusionTexture": {
        "index": 3,
        "strength": 0.6
      }
    }
  ],
  "meshes": [
    {
      "name": "bylochka-7_bylochka-7_0",
      "primitives": [
        {
          "attributes": {
            "NORMAL": 1,
            "POSITION": 0,
            "TANGENT": 2,
            "TEXCOORD_0": 3
          },
          "indices": 4,
          "material": 0,
          "mode": 4
        }
      ]
    }
  ],
  "nodes": [
    {
      "children": [
        1
      ],
      "matrix": [
        1.0,
        0.0,
        0.0,
        0.0,
        0.0,
        2.220446049250313e-16,
        -1.0,
        0.0,
        0.0,
        1.0,
        2.220446049250313e-16,
        0.0,
        0.0,
        0.0,
        0.0,
        1.0
      ],
      "name": "Sketchfab_model"
    },
    {
      "children": [
        2
      ],
      "matrix": [
        0.009999999776482582,
        0.0,
        0.0,
        0.0,
        0.0,
        0.0,
        0.009999999776482582,
        0.0,
        0.0,
        -0.009999999776482582,
        0.0,
        0.0,
        0.0,
        0.0,
        0.0,
        1.0
      ],
      "name": "03d5ee8d795c452683f40436c0b41e6c.fbx"
    },
    {
      "children": [
        3
      ],
      "name": "RootNode"
    },
    {
      "children": [
        4
      ],
      "matrix": [
        100.0,
        0.0,
        0.0,
        0.0,
        0.0,
        -1.629206793918314e-05,
        -99.99999999999868,
        0.0,
        0.0,
        99.99999999999868,
        -1.629206793918314e-05,
        0.0,
        80.39004516601563,
        0.0,
        0.0,
        1.0
      ],
      "name": "bylochka-7"
    },
    {
      "mesh": 0,
      "name": "bylochka-7_bylochka-7_0"
    }
  ],
  "samplers": [
    {
      "magFilter": 9729,
      "minFilter": 9987,
      "wrapS": 10497,
      "wrapT": 10497
    }
  ],
  "scene": 0,
  "scenes": [
    {
      "name": "Sketchfab_Scene",
      "nodes": [
        0
      ]
    }
  ],
  "textures": [
    {
      "sampler": 0,
      "source": 0
    },
    {
      "sampler": 0,
      "source": 1
    },
    {
      "sampler": 0,
      "source": 2
    },
    {
      "sampler": 0,
      "source": 3
    }
  ]
}
