{
  "accessors": [
    {
      "bufferView": 2,
      "componentType": 5126,
      "count": 1120,
      "max": [
        1.0667099952697754,
        1.0673500299453735,
        0.22045999765396118
      ],
      "min": [
        -1.1080800294876099,
        -1.107450008392334,
        -1.4250600337982178
      ],
      "type": "VEC3"
    },
    {
      "bufferView": 2,
      "byteOffset": 13440,
      "componentType": 5126,
      "count": 1120,
      "max": [
        0.994406521320343,
        0.9991434216499329,
        0.9943304061889648
      ],
      "min": [
        -0.9943887591362,
        -0.9990960955619812,
        -0.9999637007713318
      ],
      "type": "VEC3"
    },
    {
      "bufferView": 1,
      "componentType": 5126,
      "count": 1120,
      "max": [
        0.9907600283622742,
        0.9983999729156494
      ],
      "min": [
        0.0015999999595806003,
        0.0015999999595806003
      ],
      "type": "VEC2"
    },
    {
      "bufferView": 0,
      "componentType": 5125,
      "count": 1680,
      "type": "SCALAR"
    },
    {
      "bufferView": 2,
      "byteOffset": 26880,
      "componentType": 5126,
      "count": 3784,
      "max": [
        1.093500018119812,
        1.094230055809021,
        0.7010999917984009
      ],
      "min": [
        -1.1353199481964111,
        -1.1337599754333496,
        -1.4382100105285645
      ],
      "type": "VEC3"
    },
    {
      "bufferView": 2,
      "byteOffset": 72288,
      "componentType": 5126,
      "count": 3784,
      "max": [
        0.9994394183158875,
        0.9994487166404724,
        0.9999997019767761
      ],
      "min": [
        -0.999408483505249,
        -0.9994679093360901,
        -0.9973872900009155
      ],
      "type": "VEC3"
    },
    {
      "bufferView": 1,
      "byteOffset": 8960,
      "componentType": 5126,
      "count": 3784,
      "max": [
        0.9983999729156494,
        0.9983999729156494
      ],
      "min": [
        0.0015999999595806003,
        0.0015999999595806003
      ],
      "type": "VEC2"
    },
    {
      "bufferView": 0,
      "byteOffset": 6720,
      "componentType": 5125,
      "count": 5676,
      "type": "SCALAR"
    }
  ],
  "asset": {
    "extras": {
      "author": "gorzi (https://sketchfab.com/gorzi90)",
      "license": "CC-BY-4.0 (http://creativecommons.org/licenses/by/4.0/)",
      "source": "https://sketchfab.com/3d-models/gift-f3d8abcd3b9442f39a9a2017d59b56a1",
      "title": "Gift"
    },
    "generator": "Sketchfab-14.18.0",
    "version": "2.0"
  },
  "bufferViews": [
    {
      "buffer": 0,
      "byteLength": 29424,
      "name": "floatBufferViews",
      "target": 34963
    },
    {
      "buffer": 0,
      "byteLength": 39232,
      "byteOffset": 29424,
      "byteStride": 8,
      "name": "floatBufferViews",
      "target": 34962
    },
    {
      "buffer": 0,
      "byteLength": 117696,
      "byteOffset": 68656,
      "byteStride": 12,
      "name": "floatBufferViews",
      "target": 34962
    }
  ],
  "buffers": [
    {
      "byteLength": 186352,
      "uri": "scene.bin"
    }
  ],
  "images": [
    {
      "uri": "textures/Material_metallicRoughness.png"
    },
    {
      "uri": "textures/Material.001_metallicRoughness.png"
    }
  ],
  "materials": [
    {
      "doubleSided": true,
      "name": "Material",
      "occlusionTexture": {
        "index": 0
      },
      "pbrMetallicRoughness": {
        "baseColorFactor": [
          0.5533179266316027,
          0.01910397894033584,
          0.01910397894033584,
          1.0
        ],
        "metallicFactor": 0.0,
        "metallicRoughnessTexture": {
          "index": 0
        },
        "roughnessFactor": 0.278857992710073
      }
    },
    {
      "doubleSided": true,
      "name": "Material.001",
      "occlusionTexture": {
        "index": 1,
        "strength": 0.92
      },
      "pbrMetallicRoughness": {
        "baseColorFactor": [
          0.8373390532284241,
          0.34471251054641905,
          0.008543592882640769,
          1.0
        ],
        "metallicFactor": 0.42514415282027523,
        "metallicRoughnessTexture": {
          "index": 1
        },
        "roughnessFactor": 0.17523862929867975
      }
    }
  ],
  "meshes": [
    {
      "name": "Cube.000",
      "primitives": [
        {
          "attributes": {
            "NORMAL": 1,
            "POSITION": 0,
            "TEXCOORD_0": 2
          },
          "indices": 3,
          "material": 0,
          "mode": 4
        }
      ]
    },
    {
      "name": "Cube.000",
      "primitives": [
        {
          "attributes": {
            "NORMAL": 5,
            "POSITION": 4,
            "TEXCOORD_0": 6
          },
          "indices": 7,
          "material": 1,
          "mode": 4
        }
      ]
    }
  ],
  "nodes": [
    {
      "children": [
        1
      ],
      "matrix": [
        1.0,
        0.0,
        0.0,
        0.0,
        0.0,
        2.220446049250313e-16,
        -1.0,
        0.0,
        0.0,
        1.0,
        2.220446049250313e-16,
        0.0,
        0.0,
        0.0,
        0.0,
        1.0
      ],
      "name": "Sketchfab_model"
    },
    {
      "children": [
        2
      ],
      "name": "Root"
    },
    {
      "children": [
        3,
        4
      ],
      "matrix": [
        1.0,
        0.0,
        0.0,
        0.0,
        0.0,
        1.0,
        0.0,
        0.0,
        0.0,
        0.0,
        1.0,
        0.0,
        0.07660000000000002,
        0.01922,
        1.5477299999999998,
        1.0
      ],
      "name": "Cube.000"
    },
    {
      "mesh": 0,
      "name": "Cube.000"
    },
    {
      "mesh": 1,
      "name": "Cube.000"
    }
  ],
  "samplers": [
    {
      "magFilter": 9729,
      "minFilter": 9987,
      "wrapS": 10497,
      "wrapT": 10497
    }
  ],
  "scene": 0,
  "scenes": [
    {
      "name": "Sketchfab_Scene",
      "nodes": [
        0
      ]
    }
  ],
  "textures": [
    {
      "sampler": 0,
      "source": 0
    },
    {
      "sampler": 0,
      "source": 1
    }
  ]
}
