{
  "accessors": [
    {
      "bufferView": 2,
      "componentType": 5126,
      "count": 2297,
      "max": [
        0.5480909943580627,
        0.2802700102329254,
        0.6701319813728333
      ],
      "min": [
        -0.22650699317455292,
        -0.30877500772476196,
        0.09083569794893265
      ],
      "type": "VEC3"
    },
    {
      "bufferView": 2,
      "byteOffset": 27564,
      "componentType": 5126,
      "count": 2297,
      "max": [
        0.9999407529830933,
        0.9999752640724182,
        0.9999647736549377
      ],
      "min": [
        -0.9998751282691956,
        -0.7462302446365356,
        -0.7332923412322998
      ],
      "type": "VEC3"
    },
    {
      "bufferView": 3,
      "componentType": 5126,
      "count": 2297,
      "max": [
        1.0,
        0.9961108565330505,
        0.9993268251419067,
        1.0
      ],
      "min": [
        -0.9999993443489075,
        -0.9979220032691956,
        -0.9968781471252441,
        1.0
      ],
      "type": "VEC4"
    },
    {
      "bufferView": 1,
      "componentType": 5126,
      "count": 2297,
      "max": [
        0.9930639863014221,
        0.963733971118927
      ],
      "min": [
        0.0048828101716935635,
        0.0048828101716935635
      ],
      "type": "VEC2"
    },
    {
      "bufferView": 0,
      "componentType": 5125,
      "count": 9936,
      "type": "SCALAR"
    },
    {
      "bufferView": 2,
      "byteOffset": 55128,
      "componentType": 5126,
      "count": 244,
      "max": [
        0.32607901096343994,
        -0.07841499894857407,
        0.6306549906730652
      ],
      "min": [
        0.23454900085926056,
        -0.181660994887352,
        0.5291600227355957
      ],
      "type": "VEC3"
    },
    {
      "bufferView": 2,
      "byteOffset": 58056,
      "componentType": 5126,
      "count": 244,
      "max": [
        0.9614876508712769,
        0.9904786348342896,
        0.9483848810195923
      ],
      "min": [
        -0.9792430996894836,
        -0.9471543431282043,
        -0.9904832243919373
      ],
      "type": "VEC3"
    },
    {
      "bufferView": 3,
      "byteOffset": 36752,
      "componentType": 5126,
      "count": 244,
      "max": [
        0.9999951124191284,
        0.7822678089141846,
        0.9955686330795288,
        1.0
      ],
      "min": [
        -0.9904865026473999,
        -0.6950792670249939,
        -0.991057813167572,
        -1.0
      ],
      "type": "VEC4"
    },
    {
      "bufferView": 1,
      "byteOffset": 18376,
      "componentType": 5126,
      "count": 244,
      "max": [
        0.9887499809265137,
        0.1100270003080368
      ],
      "min": [
        0.6197710037231445,
        0.0048828101716935635
      ],
      "type": "VEC2"
    },
    {
      "bufferView": 0,
      "byteOffset": 39744,
      "componentType": 5125,
      "count": 990,
      "type": "SCALAR"
    },
    {
      "bufferView": 2,
      "byteOffset": 60984,
      "componentType": 5126,
      "count": 1081,
      "max": [
        0.6517050266265869,
        0.4757409989833832,
        0.7623220086097717
      ],
      "min": [
        -0.3305079936981201,
        -0.5078219771385193,
        -0.5621430277824402
      ],
      "type": "VEC3"
    },
    {
      "bufferView": 2,
      "byteOffset": 73956,
      "componentType": 5126,
      "count": 1081,
      "max": [
        1.0,
        1.0,
        0.9996491074562073
      ],
      "min": [
        -1.0,
        -1.0,
        -1.0
      ],
      "type": "VEC3"
    },
    {
      "bufferView": 3,
      "byteOffset": 40656,
      "componentType": 5126,
      "count": 1081,
      "max": [
        0.9999991059303284,
        0.7809692621231079,
        1.0,
        1.0
      ],
      "min": [
        -1.0,
        -0.78713458776474,
        -1.0,
        1.0
      ],
      "type": "VEC4"
    },
    {
      "bufferView": 1,
      "byteOffset": 20328,
      "componentType": 5126,
      "count": 1081,
      "max": [
        0.9951170086860657,
        0.9681169986724854
      ],
      "min": [
        0.0048828101716935635,
        0.0048828101716935635
      ],
      "type": "VEC2"
    },
    {
      "bufferView": 0,
      "byteOffset": 43704,
      "componentType": 5125,
      "count": 4848,
      "type": "SCALAR"
    },
    {
      "bufferView": 2,
      "byteOffset": 86928,
      "componentType": 5126,
      "count": 36278,
      "max": [
        1.0,
        0.5737450122833252,
        0.08629190176725388
      ],
      "min": [
        -1.0,
        -0.5280299782752991,
        -0.7623220086097717
      ],
      "type": "VEC3"
    },
    {
      "bufferView": 2,
      "byteOffset": 522264,
      "componentType": 5126,
      "count": 36278,
      "max": [
        0.9998363852500916,
        1.0,
        1.0
      ],
      "min": [
        -0.999888002872467,
        -1.0,
        -1.0
      ],
      "type": "VEC3"
    },
    {
      "bufferView": 3,
      "byteOffset": 57952,
      "componentType": 5126,
      "count": 36278,
      "max": [
        1.0,
        0.9996740221977234,
        0.9989591836929321,
        1.0
      ],
      "min": [
        -0.9999979734420776,
        -0.9999978542327881,
        -0.9998563528060913,
        1.0
      ],
      "type": "VEC4"
    },
    {
      "bufferView": 1,
      "byteOffset": 28976,
      "componentType": 5126,
      "count": 36278,
      "max": [
        0.9650539755821228,
        0.9413679838180542
      ],
      "min": [
        0.004882790148258209,
        0.0048828101716935635
      ],
      "type": "VEC2"
    },
    {
      "bufferView": 0,
      "byteOffset": 63096,
      "componentType": 5125,
      "count": 194478,
      "type": "SCALAR"
    },
    {
      "bufferView": 2,
      "byteOffset": 957600,
      "componentType": 5126,
      "count": 322,
      "max": [
        0.5994619727134705,
        -0.49001601338386536,
        0.6813009977340698
      ],
      "min": [
        -0.27758800983428955,
        -0.5737450122833252,
        -0.49990999698638916
      ],
      "type": "VEC3"
    },
    {
      "bufferView": 2,
      "byteOffset": 961464,
      "componentType": 5126,
      "count": 322,
      "max": [
        0.9998205304145813,
        1.7502792388768285e-06,
        0.9998683333396912
      ],
      "min": [
        -1.0,
        -0.999997615814209,
        -0.9998683333396912
      ],
      "type": "VEC3"
    },
    {
      "bufferView": 3,
      "byteOffset": 638400,
      "componentType": 5126,
      "count": 322,
      "max": [
        0.3827420473098755,
        1.0,
        1.0,
        1.0
      ],
      "min": [
        -0.38273918628692627,
        -1.0,
        -0.9998205900192261,
        1.0
      ],
      "type": "VEC4"
    },
    {
      "bufferView": 1,
      "byteOffset": 319200,
      "componentType": 5126,
      "count": 322,
      "max": [
        0.9949820041656494,
        0.3961470127105713
      ],
      "min": [
        0.3815020024776459,
        0.03252369910478592
      ],
      "type": "VEC2"
    },
    {
      "bufferView": 0,
      "byteOffset": 841008,
      "componentType": 5125,
      "count": 1134,
      "type": "SCALAR"
    }
  ],
  "asset": {
    "extras": {
      "author": "Malachi (https://sketchfab.com/smoggu)",
      "license": "CC-BY-NC-ND-4.0 (http://creativecommons.org/licenses/by-nc-nd/4.0/)",
      "source": "https://sketchfab.com/3d-models/dial-phone-287852606fb54b76b8bd786b03dfb3ce",
      "title": "Dial Phone"
    },
    "generator": "Sketchfab-12.66.0",
    "version": "2.0"
  },
  "bufferViews": [
    {
      "buffer": 0,
      "byteLength": 845544,
      "name": "floatBufferViews",
      "target": 34963
    },
    {
      "buffer": 0,
      "byteLength": 321776,
      "byteOffset": 845544,
      "byteStride": 8,
      "name": "floatBufferViews",
      "target": 34962
    },
    {
      "buffer": 0,
      "byteLength": 965328,
      "byteOffset": 1167320,
      "byteStride": 12,
      "name": "floatBufferViews",
      "target": 34962
    },
    {
      "buffer": 0,
      "byteLength": 643552,
      "byteOffset": 2132648,
      "byteStride": 16,
      "name": "floatBufferViews",
      "target": 34962
    }
  ],
  "buffers": [
    {
      "byteLength": 2776200,
      "uri": "scene.bin"
    }
  ],
  "images": [
    {
      "uri": "textures/lambert2_baseColor.png"
    },
    {
      "uri": "textures/lambert2_metallicRoughness.png"
    },
    {
      "uri": "textures/lambert2_normal.png"
    }
  ],
  "materials": [
    {
      "alphaMode": "BLEND",
      "doubleSided": true,
      "name": "lambert2",
      "normalTexture": {
        "index": 2
      },
      "occlusionTexture": {
        "index": 1
      },
      "pbrMetallicRoughness": {
        "baseColorTexture": {
          "index": 0
        },
        "metallicRoughnessTexture": {
          "index": 1
        }
      }
    }
  ],
  "meshes": [
    {
      "name": "defaultMaterial",
      "primitives": [
        {
          "attributes": {
            "NORMAL": 1,
            "POSITION": 0,
            "TANGENT": 2,
            "TEXCOORD_0": 3
          },
          "indices": 4,
          "material": 0,
          "mode": 4
        }
      ]
    },
    {
      "name": "defaultMaterial",
      "primitives": [
        {
          "attributes": {
            "NORMAL": 6,
            "POSITION": 5,
            "TANGENT": 7,
            "TEXCOORD_0": 8
          },
          "indices": 9,
          "material": 0,
          "mode": 4
        }
      ]
    },
    {
      "name": "defaultMaterial",
      "primitives": [
        {
          "attributes": {
            "NORMAL": 11,
            "POSITION": 10,
            "TANGENT": 12,
            "TEXCOORD_0": 13
          },
          "indices": 14,
          "material": 0,
          "mode": 4
        }
      ]
    },
    {
      "name": "defaultMaterial",
      "primitives": [
        {
          "attributes": {
            "NORMAL": 16,
            "POSITION": 15,
            "TANGENT": 17,
            "TEXCOORD_0": 18
          },
          "indices": 19,
          "material": 0,
          "mode": 4
        }
      ]
    },
    {
      "name": "defaultMaterial",
      "primitives": [
        {
          "attributes": {
            "NORMAL": 21,
            "POSITION": 20,
            "TANGENT": 22,
            "TEXCOORD_0": 23
          },
          "indices": 24,
          "material": 0,
          "mode": 4
        }
      ]
    }
  ],
  "nodes": [
    {
      "children": [
        1
      ],
      "matrix": [
        1.0,
        0.0,
        0.0,
        0.0,
        0.0,
        2.220446049250313e-16,
        -1.0,
        0.0,
        0.0,
        1.0,
        2.220446049250313e-16,
        0.0,
        0.0,
        0.0,
        0.0,
        1.0
      ],
      "name": "Sketchfab_model"
    },
    {
      "children": [
        2,
        4,
        6,
        8,
        10
      ],
      "matrix": [
        1.0,
        0.0,
        0.0,
        0.0,
        0.0,
        -4.371139006309477e-08,
        0.999999999999999,
        0.0,
        0.0,
        -0.999999999999999,
        -4.371139006309477e-08,
        0.0,
        0.0,
        0.0,
        0.0,
        1.0
      ],
      "name": "Collada visual scene group"
    },
    {
      "children": [
        3
      ],
      "name": "Dial_low"
    },
    {
      "mesh": 0,
      "name": "defaultMaterial"
    },
    {
      "children": [
        5
      ],
      "name": "Stopper_low"
    },
    {
      "mesh": 1,
      "name": "defaultMaterial"
    },
    {
      "children": [
        7
      ],
      "name": "Body_low"
    },
    {
      "mesh": 2,
      "name": "defaultMaterial"
    },
    {
      "children": [
        9
      ],
      "name": "Reciever_low"
    },
    {
      "mesh": 3,
      "name": "defaultMaterial"
    },
    {
      "children": [
        11
      ],
      "name": "Feet_low"
    },
    {
      "mesh": 4,
      "name": "defaultMaterial"
    }
  ],
  "samplers": [
    {
      "magFilter": 9729,
      "minFilter": 9987,
      "wrapS": 10497,
      "wrapT": 10497
    }
  ],
  "scene": 0,
  "scenes": [
    {
      "name": "Sketchfab_Scene",
      "nodes": [
        0
      ]
    }
  ],
  "textures": [
    {
      "sampler": 0,
      "source": 0
    },
    {
      "sampler": 0,
      "source": 1
    },
    {
      "sampler": 0,
      "source": 2
    }
  ]
}
